<?xml version="1.0" encoding="iso-8859-1"?>
<!-- Generator: Adobe Illustrator 18.0.0, SVG Export Plug-In . SVG Version: 6.00 Build 0)  -->
<!DOCTYPE svg PUBLIC "-//W3C//DTD SVG 1.1//EN" "http://www.w3.org/Graphics/SVG/1.1/DTD/svg11.dtd">
<svg version="1.1" id="Capa_1" xmlns="http://www.w3.org/2000/svg" xmlns:xlink="http://www.w3.org/1999/xlink" x="0px" y="0px"
	 viewBox="0 0 497.586 497.586" style="enable-background:new 0 0 497.586 497.586;" xml:space="preserve">
<g>
	<path d="M461.603,117.485l-2.432-1.361c-6.193-3.47-17.979-5.988-28.022-5.988c-35.894,0-55.261,28.359-55.261,55.043
		c0,19.423,11.464,32.472,28.525,32.472c10.627,0,19.778-4.18,26.838-12.177c3.469,7.753,10.778,12.177,20.715,12.177
		c26.859,0,45.619-23.085,45.619-56.14c0-39.003-29.507-67.314-70.162-67.314c-48.994,0-85.941,37.606-85.941,87.476
		c0,47.933,36.399,73.012,72.355,73.012c16.857,0,28.559-2.311,41.736-8.24l3.216-1.446l-6.408-20.647l-4.238,2.224
		c-7.82,4.105-19.007,6.556-29.924,6.556c-32.145,0-52.114-20.473-52.114-53.43c0-42.126,29.634-64.166,58.907-64.166
		c29.396,0,48.39,18.306,48.39,46.636c0,22.548-10.156,33.052-17.019,33.052h-0.11c-1.154-0.041-1.436-0.386-1.57-0.552
		c-0.616-0.757-1.86-3.618-0.119-13.893L461.603,117.485z M427.43,152.515c-1.743,11.239-9.193,19.637-14.688,19.637
		c-1.724,0-6.973,0-6.973-9.604c0-14.962,9.811-27.132,21.874-27.132c0.83,0,1.59,0.042,2.293,0.114L427.43,152.515z"/>
	<path d="M421.683,378.608c0,2.357-0.662,4.506-1.641,6.488L314.513,279.558l39.465-39.465c-2.254-1.692-4.442-3.479-6.545-5.376
		c-5.379-4.852-10.083-10.269-14.129-16.165l-102.929,102.93c-2.463,2.463-6.749,2.463-9.214,0L57.337,157.651h259.218
		c0.333-10.31,1.941-20.328,4.752-29.854H44.779C20.087,127.797,0,147.884,0,172.578v206.03c0,24.693,20.087,44.781,44.779,44.781
		h361.976c24.694,0,44.781-20.088,44.781-44.781V254.655c-9.329,2.851-18.854,4.39-29.854,4.863V378.608z M31.485,385.096
		c-0.97-1.982-1.631-4.132-1.631-6.488v-206.03c0-0.058,0.029-0.101,0.029-0.159l107.141,107.14L31.485,385.096z M65.261,393.536
		l92.871-92.869l41.922,41.924c6.874,6.872,16.007,10.654,25.714,10.654c9.71,0,18.841-3.782,25.715-10.654l41.924-41.924
		l92.86,92.869H65.261z"/>
</g>
<g>
</g>
<g>
</g>
<g>
</g>
<g>
</g>
<g>
</g>
<g>
</g>
<g>
</g>
<g>
</g>
<g>
</g>
<g>
</g>
<g>
</g>
<g>
</g>
<g>
</g>
<g>
</g>
<g>
</g>
</svg>
